<svg height="283.46" width="283.46" xmlns="http://www.w3.org/2000/svg"><g clip-rule="evenodd" fill-rule="evenodd"><path d="m274.514 141.729c.611 72.302-58.557 133.45-133.038 133.559-74.138.108-133.747-59.92-133.737-133.502.01-72.982 58.945-133.491 133.547-133.423 75.054.07 133.652 61.217 133.228 133.366z" fill="#5fb5e2"/><g><path d="m129.386 91.64c-.02-.586-.413-1.027-.671-1.513-1.843-3.449-3.627-6.933-5.576-10.321-.897-1.562-.79-2.818.131-4.308 2.448-3.959 4.776-7.993 7.2-12.08-1.906-1.718-3.782-3.412-5.662-5.103a3128.628 3128.628 0 0 0 -7.712-6.927c-.714-.638-1.311-1.328-1.13-2.37.163-.939.888-1.432 1.613-1.92 5.007-3.379 10.012-6.762 15.015-10.146 2.05-1.386 4.092-2.783 6.144-4.166 1.698-1.145 2.156-1.144 3.881.024 14.295 9.675 28.588 19.353 42.879 29.031 14.436 9.775 28.869 19.554 43.306 29.326.427.288.86.615 1.341.764 1.252.385 1.706 1.268 1.729 2.475.014.691.014 1.382.014 2.074v106.614c0 3.259-.421 3.678-3.674 3.678l-173.833-.001c-.749 0-1.5.026-2.246-.015-1.384-.077-2.102-.771-2.225-2.132-.041-.457-.016-.921-.016-1.381v-107.825c0-.46-.029-.924.016-1.381.129-1.323.886-2.077 2.216-2.205.456-.044.92-.01 1.381-.01 24.825-.001 49.65 0 74.475-.009.437 0 .907.152 1.404-.173z" fill="#121212"/><path d="m223.031 201.741h-164.772c.042-.615.518-.805.83-1.083 17.879-15.946 35.767-31.885 53.652-47.823 1.369-1.221 1.145-.981 2.336.052.565.491 1.095 1.031 1.699 1.467.949.683 1.749.64 2.688-.078.364-.279.682-.618 1.014-.938 3.274-3.158 6.565-6.301 9.805-9.495.717-.707 1.444-.97 2.442-.954 7.832.116 15.665.199 23.499.241 1.051.006 1.828.293 2.617.997 21.137 18.87 42.296 37.716 63.453 56.563.297.266.619.502.93.753z" fill="#fdfdfd"/><path d="m221.887 91.644c-.586.388-.992.26-1.373.26-7.888.008-15.773.006-23.661.004-1.755-.001-1.76-.003-2.347-1.754-1.259-3.76-2.506-7.525-3.77-11.284-.988-2.938-1.648-3.264-4.557-2.288-14.649 4.908-29.308 9.789-43.938 14.753-2.387.809-4.777.455-7.173.561-.556.024-.79-.393-1.012-.806-2.259-4.205-4.496-8.424-6.796-12.606-.442-.804-.024-1.298.317-1.875 2.284-3.861 4.574-7.719 6.862-11.577.059-.101.12-.197.178-.297 1.022-1.753.955-2.429-.506-3.761-2.552-2.325-5.13-4.623-7.7-6.931-1.37-1.23-2.75-2.45-4.112-3.688-.775-.704-.784-.769.097-1.373 2.467-1.693 4.955-3.354 7.431-5.031 3.19-2.163 6.376-4.331 9.567-6.492 1.281-.868 1.288-.867 2.531-.025 8.574 5.806 17.146 11.615 25.718 17.422 14.527 9.839 29.057 19.676 43.584 29.515 3.191 2.162 6.381 4.325 9.569 6.49.327.219.642.458 1.091.783z" fill="#8c8b8a"/><path d="m110.577 148.92-56.106 48.917v-98.915zm60.149-.019c18.753-16.713 37.31-33.248 55.828-49.753.146.05.206.062.254.09.042.025.103.07.103.106.029 32.235.055 64.47.08 96.705v1.905c-18.91-16.484-37.534-32.722-56.265-49.053zm-112.914-52.789h2.2l69.596-.001c.23 0 .466.033.69-.007.972-.167 1.276.356 1.427 1.213.45 2.546.96 5.082 1.443 7.622.139.733.167 1.507.422 2.196.563 1.525.121 2.694-.831 3.947-2.399 3.16-4.619 6.457-7.003 9.63-.949 1.264-1.028 2.395-.411 3.824 1.705 3.956 3.285 7.965 4.929 11.947.253.613.392 1.092-.208 1.664-4.001 3.807-7.963 7.655-12.058 11.607z" fill="#fdfdfd"/><path d="m135.713 114.711c.071-1.061.872-1.728 1.46-2.454 1.064-1.316 1.368-2.625.957-4.309-.683-2.786-1.114-5.633-1.667-8.451-.297-1.515-.315-1.515 1.169-2.012 11.687-3.914 23.373-7.829 35.06-11.74 4.238-1.419 8.479-2.831 12.719-4.242 1.361-.453 1.383-.454 1.807.802 3.863 11.479 7.721 22.96 11.566 34.445.169.503.499 1.005-.125 1.542-2.174 1.875-4.299 3.806-6.473 5.742-.408-.464-.049-1.112-.563-1.411-3.123-1.718-6.342-3.249-9.527-4.845-2.506-1.255-3.082-1.06-4.318 1.386-.908 1.797-1.818 3.595-2.7 5.403-.546 1.12-1.28 1.333-2.373.779-1.899-.961-3.786-1.948-5.719-2.841-1.944-.898-2.806-.601-3.779 1.271-.903 1.734-1.736 3.505-2.64 5.24-.885 1.697-1.29 1.835-2.982 1.026-1.559-.742-3.088-1.544-4.637-2.305-2.627-1.288-3.359-1.045-4.788 1.566-.136.255-.291.499-.435.749a4.434 4.434 0 0 1 -.202.338c-.096.163-.189.33-.272.502a4.085 4.085 0 0 1 -.168.338c-.051.116-.108.228-.166.342a4.922 4.922 0 0 1 -.172.34c-.053.117-.111.23-.17.345-.051.118-.112.23-.174.343-.053.118-.111.232-.17.348-.053.118-.113.23-.175.343-.052.117-.111.229-.169.344a4.045 4.045 0 0 1 -.172.334c-.05.112-.107.223-.164.332-.05.109-.109.217-.17.32-.082.161-.162.322-.243.485-.056.11-.126.208-.206.3-.088.089-.186.16-.296.217a.787.787 0 0 1 -.364.03 3.497 3.497 0 0 1 -.511-.201 3.235 3.235 0 0 1 -.327-.152c-.108-.051-.214-.107-.319-.162a3.383 3.383 0 0 1 -.317-.163 8.793 8.793 0 0 0 -.475-.24c-.112-.044-.22-.098-.328-.152-.113-.048-.221-.103-.331-.157a4.93 4.93 0 0 1 -.334-.165c-.115-.05-.226-.109-.338-.166a3.849 3.849 0 0 1 -.34-.17c-.117-.052-.229-.111-.343-.17-.118-.051-.23-.111-.344-.172-.116-.052-.229-.112-.343-.17a4.508 4.508 0 0 1 -.34-.172 6.189 6.189 0 0 1 -.336-.168 4.876 4.876 0 0 1 -.33-.169c-.11-.051-.217-.11-.324-.166a4.128 4.128 0 0 1 -.316-.166 8.114 8.114 0 0 0 -.472-.246 3.626 3.626 0 0 1 -.329-.152 9.319 9.319 0 0 0 -.523-.222c-.131-.037-.258-.077-.387-.112a1.971 1.971 0 0 0 -1.02.038c-.127.055-.255.105-.379.163-.316.145-.551.4-.822.605a4.52 4.52 0 0 1 -.192.077c-.221.009-.468.082-.584-.203-1.212-2.971-2.417-5.943-3.644-8.907-.145-.351-.192-.633.04-.952a868.726 868.726 0 0 0 3.018-4.188c.208-.291.5-.204.778-.197l.237-.026c.333-.002.635.112.934.241 1.046.484 2.06 1.034 3.106 1.514 1.513.691 2.127.528 3.038-.879 1.161-1.796 1.813-3.848 2.816-5.728.992-1.86 1.307-2.025 3.213-1.102 1.762.854 3.486 1.786 5.264 2.604 1.859.856 2.695.557 3.634-1.249.93-1.788 1.771-3.623 2.726-5.396.813-1.511 1.367-1.687 2.932-.952 1.824.857 3.595 1.825 5.418 2.685 1.855.874 2.658.604 3.637-1.233.895-1.676 1.699-3.399 2.561-5.094 1.064-2.089 1.293-2.161 3.453-1.1 1.498.737 2.983 1.501 4.482 2.236.621.305 1.25.595 1.94.709.758.126 1.387-.101 1.756-.793.399-.751.265-1.457-.351-2.044-.635-.605-1.434-.953-2.205-1.34-2.266-1.135-4.528-2.275-6.803-3.389-2.148-1.053-2.84-.808-3.953 1.368-.916 1.794-1.844 3.586-2.709 5.404-.605 1.273-1.398 1.496-2.628.855-1.89-.982-3.78-1.971-5.724-2.842-1.819-.814-2.58-.545-3.512 1.205-.893 1.677-1.695 3.4-2.561 5.092-1.092 2.132-1.518 2.278-3.621 1.254-1.708-.834-3.388-1.726-5.11-2.526-1.681-.781-2.527-.517-3.419 1.102-1.001 1.813-1.857 3.706-2.821 5.54-1.035 1.964-1.861 2.031-3.477.319z" fill="#fbf2a0"/><path d="m189.046 125.551.938.5c-.319.266-.608.49-.881.733-5.112 4.554-10.227 9.105-15.328 13.669-.609.546-1.171 1.009-2.096.939-.986-.073-1.484.678-1.934 1.467-.453.794-.677 1.714-1.35 2.388-.82.821-.926.85-1.814.066-1.77-1.559-3.58-3.079-5.266-4.724-1.23-1.2-2.539-1.771-4.295-1.7-2.641.106-5.291-.017-7.938-.061-.418-.006-.978.169-1.045-.546a5.261 5.261 0 0 0 -.006-.179c.012-.118.041-.233.082-.345a2.08 2.08 0 0 1 .155-.314c.08-.152.158-.307.228-.464.04-.108.092-.211.147-.312.044-.104.097-.205.151-.306.046-.105.104-.204.165-.302.082-.153.159-.309.231-.468.046-.112.1-.218.156-.325.05-.113.105-.222.16-.333.049-.115.107-.225.168-.335.051-.115.107-.227.164-.337.051-.115.11-.227.17-.336.052-.113.109-.224.166-.335.052-.114.112-.224.174-.333.084-.172.165-.347.243-.525.052-.129.112-.251.179-.375.139-.272.301-.526.563-.699.798-.419 1.451.048 2.109.366 1.709.826 3.384 1.724 5.105 2.525 1.967.915 2.927.589 3.943-1.326.945-1.777 1.827-3.589 2.711-5.397.611-1.251 1.453-1.486 2.665-.861a249.21 249.21 0 0 0 5.094 2.546c2.369 1.155 3.134.889 4.397-1.471.869-1.624 1.531-3.348 2.395-4.975.906-1.709 1.21-1.862 2.956-.932 2.12 1.13 4.452 1.862 6.338 3.417z" fill="#fbf2a0"/><path d="m189.046 125.551c-1.97-.65-3.716-1.774-5.588-2.633-.781-.357-1.542-.761-2.409-1.19-.814 1.115-1.279 2.403-1.905 3.599-.638 1.221-1.212 2.475-1.847 3.696-.9 1.734-1.908 2.098-3.654 1.264-2.121-1.013-4.211-2.091-6.323-3.122-1.073-.524-1.097-.514-1.643.565-1.034 2.049-2.035 4.116-3.081 6.161-.943 1.845-1.912 2.178-3.775 1.276-2.064-1-4.097-2.063-6.16-3.065-.47-.228-.998-.729-1.523-.045-.199.183-.139.495-.332.681l-.007.013c-.211.177-.144.493-.339.678l-.007.014c-.211.176-.143.494-.342.675l-.006.015c-.208.177-.14.493-.341.674l-.008.017c-.205.182-.14.495-.334.682l-.006.012c-.212.179-.146.495-.338.682l-.005.01c-.216.176-.148.494-.341.681l-.005.012c-.215.174-.146.492-.345.675l-.006.014c-.208.182-.146.494-.332.687l-.006.01c-2.428.748-4.858 1.144-7.294.027-.061-.012-.121-.021-.182-.031a1.63 1.63 0 0 1 -.358-.102 3.517 3.517 0 0 1 -.337-.167c-.116-.051-.228-.11-.34-.166a4.508 4.508 0 0 1 -.34-.172 6.66 6.66 0 0 1 -.339-.167 4.308 4.308 0 0 1 -.332-.169c-.11-.049-.217-.106-.323-.162a3.351 3.351 0 0 1 -.307-.164 6.231 6.231 0 0 0 -.442-.217c-.096-.032-.192-.067-.29-.096 0 .006-.146-.004-.146-.004s-.146.022-.144.029a.938.938 0 0 0 -.234.191c-.062.092-.132.17-.208.245 0 .002-.141.08-.141.08-.352.115-.818.5-1.016-.055-.521-1.47-1.615-2.765-1.417-4.463l-.004.011c.274-.422.73-.67 1.03-1.067l-.014.01c.634-.226 1.271-.185 1.909-.015.099-.049.169-.021.211.08.14.121.278.248.477.264.101-.045.172-.018.215.084.141.119.278.246.476.262.101-.044.173-.015.215.086.142.119.279.246.478.259.1-.043.171-.015.214.087.146.121.287.253.494.256.096-.046.161-.02.196.08.144.131.287.263.499.266.095-.048.159-.021.192.08.141.128.281.258.487.268.098-.045.166-.017.205.084.143.123.282.252.486.261.098-.044.166-.016.205.084.148.128.292.263.507.261l.116-.016.067.096c.149.133.295.271.517.264l.111-.018.063.094c.143.135.287.269.502.271l.117-.016.072.096c.146.131.29.266.506.265l-.002.019c.236-.018.393-.153.516-.342l-.013.018c.243-.17.18-.495.356-.697l-.004.009c.234-.175.174-.498.35-.7l-.004.008c.234-.174.174-.496.349-.701l-.005.01c.236-.175.178-.497.348-.705l-.006.013c.241-.171.18-.495.354-.698l-.005.008c.236-.174.176-.496.35-.703l-.006.012c.239-.175.18-.497.349-.706l-.007.014c.25-.173.174-.509.356-.716.038-.537.368-.954.601-1.407.947-1.844 1.916-2.192 3.757-1.302 2.011.972 3.997 1.995 5.997 2.988 1.313.649 1.324.646 1.995-.688.954-1.894 1.89-3.798 2.845-5.691 1.121-2.221 1.998-2.508 4.249-1.389 2.253 1.121 4.497 2.256 6.724 3.374.557-.204.624-.704.82-1.09 1.039-2.043 2.039-4.106 3.094-6.142.936-1.807 1.859-2.138 3.615-1.282a703.74 703.74 0 0 1 8.916 4.433c.541.274 1.194.484 1.336 1.223-.009.113-.021.226-.025.34-.081 2.305-.179 2.404-2.551 2.578zm-53.333-10.84c.057.006.12 0 .171.021.678.287 1.433.918 2.01.782.749-.176.852-1.26 1.216-1.958.903-1.73 1.741-3.496 2.648-5.226.867-1.652 1.849-1.999 3.535-1.201 2.129 1.008 4.221 2.093 6.334 3.133 1.096.539 1.117.536 1.652-.515 1.017-1.997 2.007-4.008 3.018-6.008 1.102-2.177 1.885-2.443 4.119-1.358 1.756.853 3.469 1.796 5.241 2.611 2.181 1.005 1.577 1.281 2.696-.846.963-1.83 1.836-3.707 2.777-5.548.967-1.888 1.856-2.196 3.75-1.274 2.941 1.434 5.867 2.901 8.795 4.362.308.153.612.33.875.547.822.679 1.05 1.732.599 2.634-.485.971-1.563 1.456-2.612 1.122-.488-.156-.952-.403-1.414-.633-2.211-1.101-4.416-2.21-6.742-3.376-1.018 2.023-2.066 3.996-3.012 6.019-1.457 3.118-2.031 3.891-5.791 1.896-1.92-1.02-3.885-1.953-5.928-2.974-1.119 2.223-2.176 4.319-3.229 6.417-.181.359-.33.735-.523 1.088-.837 1.527-1.826 1.889-3.438 1.138-1.873-.872-3.709-1.823-5.558-2.746-1.995-.995-1.99-.997-2.944.929-.893 1.802-1.778 3.608-2.697 5.398-.972 1.891-1.829 2.187-3.757 1.243-1.125-.55-2.318-.98-3.328-1.752-.147-.291-.471-.234-.703-.357l-.015-.004c.2-1.537 1.304-2.503 2.255-3.564z" fill="#050607"/><path d="m223.044 96.461c-2.2 2.273-4.671 4.254-7.013 6.373-4.01 3.629-8.065 7.205-12.109 10.794-.332.295-.592.725-1.256.751-.689-2.021-1.396-4.072-2.09-6.13a3799.37 3799.37 0 0 1 -3.682-10.946c-.09-.268-.107-.56-.158-.841.359-.259.775-.17 1.17-.17 7.989-.006 15.979-.006 23.967-.001.396.001.811-.087 1.171.17z" fill="#8c8b8a"/><path d="m223.044 96.461-26.308.001c.332-.669.944-.333 1.411-.335 6.612-.025 13.224-.019 19.836-.017 1.667.002 3.333.014 5.001.025.049 0 .139.06.137.084-.008.083-.049.162-.077.242z" fill="#9b8e88"/><path d="m140.745 138.311a.49.49 0 0 1 -.504.366c-1.412.005-2.824.003-4.163.003-.308-.656.267-.979.205-1.439l.005-.01c.219-.171.131-.515.381-.667l-.018.021c.216-.245.431-.251.645.001l-.007-.006c.212.159.537.096.698.354l-.011-.007c.217.153.536.097.708.343l-.008-.004c.208.166.531.103.697.353l-.007-.005c.21.163.533.101.698.352l-.008-.006c.211.162.532.103.7.351z" fill="#f2ea9e"/><path d="m141.231 161.769c11.144.031 20.586 7.623 22.821 18.386.245 1.178.324 2.393.458 3.593.116 1.032-.079 1.96-1.026 2.569-.979.628-1.854.279-2.725-.283-4.169-2.694-8.757-4.296-13.635-5.05-8.841-1.364-17.166.135-24.913 4.663-.396.23-.774.502-1.186.7-1.613.776-3.079-.065-3.143-1.863-.083-2.32.252-4.603 1.041-6.785 3.19-8.839 9.464-14.009 18.701-15.643 1.2-.212 2.398-.275 3.607-.287z" fill="#131312"/><g fill="#121212"><path d="m134.875 131.666c.036.721-.563.831-1.03 1.067.116-.575.435-.954 1.03-1.067z"/><path d="m136.77 131.661-1.909.015c.633-.494 1.27-.459 1.909-.015zm9.176 1.408c.007.295-.054.557-.349.701.005-.289.071-.547.349-.701z"/><path d="m145.602 133.763c.006.294-.055.555-.35.7.006-.288.072-.547.35-.7z"/><path d="m145.256 134.454c.006.295-.057.557-.356.697.011-.288.079-.547.356-.697zm1.726-3.461c.008.297-.053.559-.35.703.008-.288.073-.547.35-.703z"/><path d="m146.638 131.688c.006.295-.056.557-.354.698.007-.288.074-.547.354-.698zm.687-1.389c.01.298-.05.561-.349.706.004-.291.065-.553.349-.706z"/><path d="m147.675 129.597c.005.302-.052.57-.356.716.005-.295.072-.56.356-.716zm-14.203-11.318c.313-.035.587.006.704.357-.28-.029-.558-.063-.704-.357zm12.817 14.095c.009.297-.05.56-.348.705.004-.29.066-.552.348-.705zm-8.14-.023-.476-.262c.219-.023.382.057.476.262zm6.249 3.106a.594.594 0 0 1 -.506-.265c.224-.016.401.055.506.265zm-1.371-.692a.605.605 0 0 1 -.517-.264c.225-.015.408.053.517.264zm.676.347a.597.597 0 0 1 -.502-.271c.225-.016.399.061.502.271zm-4.861-2.417-.478-.259c.218-.019.383.055.478.259zm3.485 1.726a.6.6 0 0 1 -.507-.261c.222-.018.401.05.507.261zm-.712-.345a.573.573 0 0 1 -.486-.261c.219-.019.388.055.486.261zm-.691-.345a.578.578 0 0 1 -.487-.268c.221-.017.39.06.487.268zm3.988 1.403c-.104.213-.283.316-.515.342.171-.115.343-.229.515-.342zm-7.454-3.129a.572.572 0 0 1 -.477-.264c.22-.022.384.057.477.264zm2.787 1.379a.593.593 0 0 1 -.499-.266c.223-.018.397.057.499.266zm-.695-.346a.58.58 0 0 1 -.494-.256c.219-.019.392.049.494.256zm10.56 1.078c.004-.281.065-.532.342-.675.012.288-.087.523-.342.675zm-2.065 4.157c-.004-.284.055-.537.332-.687.006.287-.062.537-.332.687zm1.377-2.77c.001-.281.061-.534.334-.682.01.287-.072.528-.334.682zm-.344.693c0-.282.061-.535.338-.682.01.289-.076.531-.338.682zm1.727-3.459c0-.281.061-.533.332-.681.009.286-.073.526-.332.681zm-2.073 4.15c0-.284.061-.537.341-.681.009.288-.082.527-.341.681zm-.349.686c.004-.281.066-.533.345-.675.008.289-.091.521-.345.675zm1.381-2.768c.005-.278.066-.53.341-.674.01.288-.087.52-.341.674zm.695-1.377c.001-.281.063-.534.339-.678.011.288-.081.524-.339.678zm-13.164 3.158-.645-.001c.216-.392.431-.401.645.001z"/><path d="m136.668 136.563c-.05.268-.121.521-.381.667.007-.291.077-.545.381-.667zm1.318.372c-.282-.02-.561-.049-.698-.354.304-.023.569.033.698.354zm1.386.684c-.284-.017-.556-.055-.697-.353.301-.018.564.039.697.353z"/><path d="m140.063 137.966c-.281-.021-.556-.055-.698-.352.302-.019.565.036.698.352z"/><path d="m140.754 138.311c-.285-.015-.559-.05-.7-.351.303-.022.567.035.7.351zm-2.071-1.04c-.282-.018-.563-.04-.708-.343.304-.026.569.029.708.343z"/></g><path d="m153.947 171.019c-1.221.686-2.579.968-3.868 1.421-3.079 1.081-6.208 2.027-9.274 3.146-2.14.78-4.382.827-6.579 1.201a44.108 44.108 0 0 0 -11.313 3.554c.206-4.601 5.127-10.578 10.95-12.902 7.289-2.912 15.747-.922 20.084 3.58z" fill="#fbf2a0"/><path d="m159.783 180.552c-3.226-1.543-6.252-2.55-9.451-3.321.308-.425.722-.508 1.123-.64a362.91 362.91 0 0 0 5.036-1.693c.554-.191.948-.157 1.271.431.85 1.546 1.58 3.13 2.021 5.223z" fill="#8a8989"/><path d="m78.94 139.657-.426-.058c.135-.275.365-.391.607-.2.128.102-.016.239-.181.258z" fill="#b7b4b4"/><path d="m202.983 139.656-.423.403c-.313-.103-.549-.464-.411-.623.297-.345.601-.053.834.22z" fill="#a3a0a0"/><path d="m195.426 146.004 17.17 6.798c0 .237.035.364-.006.462-.48 1.16-.974 2.317-1.463 3.475-1.274-.093-2.354-.757-3.504-1.207a4272.586 4272.586 0 0 1 -20.449-8.063c-.576-.229-1.451-.22-1.398-1.229.064-1.235-.267-1.323 1.191-1.894 5.756-2.252 11.493-4.55 17.24-6.824 1.862-.737 3.738-1.439 5.593-2.197a7.025 7.025 0 0 1 1.358-.412c.465 1.151.898 2.27 1.371 3.372.18.42.039.653-.322.814-.367.162-.743.303-1.116.451-4.95 1.958-9.9 3.919-14.854 5.87-.266.106-.559.142-.811.584zm-109.786 1.319c-2.906-1.16-5.446-2.179-7.991-3.188-2.82-1.119-5.646-2.224-8.464-3.349-1.163-.464-1.187-.492-.759-1.544.384-.944.43-2.307 1.284-2.706.866-.405 1.894.515 2.834.883 7.035 2.756 14.055 5.549 21.086 8.313.719.283 1.329.472 1.292 1.501-.032.888-.32 1.307-1.131 1.624-7.679 3.002-15.344 6.043-23.014 9.067-1.149.453-1.175.45-1.657-.785-.353-.9-1.198-1.875-.871-2.703.331-.837 1.637-.892 2.524-1.247 4.833-1.937 9.685-3.827 14.867-5.866z" fill="#050607"/></g></g></svg>