<svg width="254" height="64" viewBox="0 0 254 64" fill="none" xmlns="http://www.w3.org/2000/svg">
<path d="M84.5203 32.2482L77.9863 16.1592H67.6584V43.9109H75.1058V28.8056L81.3587 43.9109H87.3306L93.5835 28.5948V43.9109H101.031V16.1592H90.7029L84.5203 32.2482Z" fill="black"/>
<path d="M142.412 27.9625C142.763 28.5246 142.974 29.1569 143.185 29.8595C143.325 30.6323 143.396 31.4051 143.396 32.2482C143.396 32.9508 143.325 33.6534 143.115 34.2857C142.904 34.918 142.623 35.4801 142.272 35.9719C141.92 36.4637 141.499 36.815 140.937 37.096C140.375 37.377 139.742 37.5175 139.04 37.5175C138.267 37.5175 137.635 37.377 137.073 37.0257C136.581 36.6744 136.159 36.2529 135.808 35.7611C135.457 35.199 135.246 34.5667 135.105 33.9344C134.965 33.2318 134.895 32.459 134.895 31.7564C134.895 30.9836 134.965 30.281 135.176 29.5784C135.316 28.9461 135.597 28.3138 135.948 27.822C136.3 27.3302 136.721 26.9789 137.213 26.6979C137.705 26.4168 138.337 26.2763 139.04 26.2763C139.883 26.2763 140.585 26.4168 141.147 26.6979C141.639 26.9789 142.061 27.4004 142.412 27.9625ZM143.325 22.6932C142.763 22.1311 142.201 21.6393 141.499 21.3583C140.375 20.7962 138.969 20.5152 137.494 20.5152C135.878 20.5152 134.473 20.8665 133.208 21.4285C131.944 22.0609 130.96 22.904 130.117 23.9578C129.274 25.0117 128.642 26.2061 128.22 27.6112C127.799 28.9461 127.588 30.3513 127.588 31.8267C127.588 33.3723 127.799 34.7775 128.15 36.1826C128.501 37.5878 129.133 38.8524 129.906 39.836C130.679 40.8899 131.733 41.733 132.998 42.3653C134.262 42.9976 135.738 43.2787 137.424 43.2787C138.829 43.2787 140.164 42.9976 141.429 42.4356C142.131 42.0843 142.763 41.6627 143.325 41.1709V42.1545C143.325 43.4894 143.044 44.6838 142.342 45.5269C141.71 46.37 140.656 46.7915 139.251 46.7915C138.337 46.7915 137.494 46.5808 136.792 46.2295C136.159 45.8782 135.738 45.2459 135.527 44.3325L135.386 43.8407H128.29L128.361 44.5433C128.431 45.8782 128.852 47.0726 129.485 47.9859C130.117 48.8993 130.96 49.7424 131.944 50.3044C132.927 50.8665 133.981 51.3583 135.105 51.6393C136.229 51.9203 137.354 52.0609 138.478 52.0609C141.007 52.0609 143.115 51.7096 144.66 51.007C146.206 50.3044 147.4 49.3911 148.244 48.4075C149.087 47.3536 149.649 46.2295 149.859 45.0351C150.07 43.911 150.211 42.8571 150.211 41.9438V21.0773H143.325V22.6932Z" fill="black"/>
<path d="M192.084 32.5293C192.084 33.3724 192.014 34.1453 191.874 34.9181C191.733 35.6909 191.452 36.3233 191.101 36.8853C190.749 37.4474 190.328 37.8689 189.766 38.2202C189.204 38.5715 188.501 38.712 187.658 38.712C186.815 38.712 186.112 38.5715 185.55 38.2202C184.988 37.8689 184.496 37.4474 184.145 36.8853C183.794 36.3233 183.513 35.6909 183.372 34.9181C183.232 34.1453 183.091 33.3022 183.091 32.5293C183.091 31.6863 183.162 30.8432 183.302 30.0703C183.443 29.2975 183.724 28.6652 184.075 28.1031C184.426 27.5411 184.848 27.1195 185.41 26.7682C185.972 26.4169 186.674 26.2764 187.518 26.2764C188.361 26.2764 188.993 26.4169 189.555 26.7682C190.117 27.1195 190.609 27.6113 190.96 28.1734C191.311 28.7354 191.592 29.438 191.733 30.2108C192.014 30.9134 192.084 31.7565 192.084 32.5293ZM196.792 24.2389C195.948 23.1148 194.824 22.2015 193.56 21.4989C192.225 20.7963 190.679 20.445 188.852 20.445C187.447 20.445 186.112 20.7261 184.918 21.2881C184.215 21.6394 183.583 22.061 183.021 22.623V21.0774H176.066V51.4286H183.302V42.2249C183.864 42.787 184.496 43.2085 185.199 43.5598C186.393 44.1218 187.728 44.4029 189.133 44.4029C190.82 44.4029 192.295 44.0516 193.56 43.4193C194.824 42.787 195.878 41.8736 196.721 40.7495C197.564 39.6956 198.197 38.431 198.618 37.0258C199.04 35.6207 199.251 34.1453 199.251 32.6699C199.251 31.1242 199.04 29.5785 198.618 28.1031C198.267 26.698 197.635 25.3631 196.792 24.2389Z" fill="black"/>
<path d="M214.988 38.2202C214.426 38.5715 213.653 38.712 212.81 38.712C211.967 38.712 211.194 38.5715 210.632 38.2202C210.07 37.8689 209.578 37.4474 209.227 36.8853C208.876 36.3233 208.595 35.6207 208.454 34.9181C208.314 34.1453 208.243 33.3724 208.243 32.5293C208.243 31.6863 208.314 30.9134 208.454 30.1406C208.595 29.3678 208.876 28.7354 209.227 28.1734C209.578 27.6113 210 27.1898 210.632 26.8385C211.194 26.4872 211.897 26.3467 212.81 26.3467C213.653 26.3467 214.426 26.4872 214.988 26.8385C215.55 27.1898 216.042 27.6113 216.393 28.1734C216.745 28.7354 217.026 29.438 217.166 30.1406C217.307 30.9134 217.377 31.7565 217.377 32.5293C217.377 33.3724 217.307 34.1453 217.166 34.9181C217.026 35.6207 216.745 36.3233 216.393 36.8853C216.042 37.4474 215.621 37.8689 214.988 38.2202ZM221.382 23.7471C220.328 22.6933 219.063 21.8502 217.658 21.2881C216.183 20.7261 214.567 20.445 212.81 20.445C211.054 20.445 209.438 20.7261 207.962 21.2881C206.557 21.8502 205.293 22.6933 204.239 23.7471C203.185 24.801 202.412 26.0656 201.85 27.5411C201.288 29.0165 201.007 30.6324 201.007 32.4591C201.007 34.2858 201.288 35.9017 201.85 37.3771C202.412 38.8525 203.185 40.1172 204.239 41.171C205.293 42.2249 206.557 42.9977 207.962 43.5598C209.368 44.1218 210.984 44.4029 212.81 44.4029C214.567 44.4029 216.183 44.1218 217.658 43.5598C219.133 42.9977 220.398 42.1546 221.382 41.171C222.436 40.1172 223.208 38.8525 223.77 37.3771C224.332 35.9017 224.614 34.2858 224.614 32.4591C224.614 30.7026 224.332 29.0165 223.77 27.5411C223.279 26.1359 222.436 24.801 221.382 23.7471Z" fill="black"/>
<path d="M253.7 27.1194V20.4449H249.344V14.5432H242.107V38.2903C242.107 39.4847 242.318 40.4683 242.74 41.2411C243.161 42.014 243.723 42.6463 244.496 43.0678C245.199 43.4894 245.972 43.7704 246.885 43.9109C247.728 44.0514 248.641 44.1217 249.555 44.1217C250.117 44.1217 250.749 44.1217 251.381 44.0514C252.014 44.0514 252.576 43.9812 253.138 43.9109L253.7 43.8407V37.8688L252.927 38.0093C252.646 38.0795 252.435 38.0795 252.154 38.1498C251.873 38.1498 251.592 38.2201 251.241 38.2201C250.117 38.2201 249.765 38.0093 249.695 37.939C249.625 37.8688 249.414 37.5175 249.414 36.3934V27.1194H253.7Z" fill="black"/>
<path d="M240.421 20.445C239.578 20.445 237.962 20.5856 237.19 20.7963C236.417 21.0071 235.714 21.3584 235.082 21.7799C234.45 22.2015 233.817 22.7635 233.325 23.3959C233.325 23.3959 233.325 23.3959 233.255 23.4661V21.0774H226.3V43.9111H233.536V33.513C233.536 32.5996 233.606 31.7565 233.817 30.9837C233.958 30.2108 234.309 29.5785 234.66 29.0165C235.082 28.4544 235.574 28.0329 236.206 27.7518C237.049 27.3303 238.243 27.1898 239.649 27.3303L240.351 27.4005V21.1476V20.445" fill="black"/>
<path d="M112.552 26.6276C113.114 26.3466 113.747 26.2061 114.59 26.2061C115.855 26.2061 116.768 26.5574 117.33 27.1897C117.822 27.7517 118.243 28.5246 118.454 29.5082H110.445C110.515 29.2974 110.515 29.1569 110.585 28.9461C110.726 28.5246 110.936 28.103 111.288 27.6815C111.569 27.2599 111.99 26.9086 112.552 26.6276ZM123.442 24.6604C122.529 23.3958 121.335 22.3419 119.859 21.6393C118.384 20.8665 116.698 20.5152 114.801 20.5152C113.114 20.5152 111.499 20.7962 110.093 21.4285C108.688 22.0609 107.424 22.904 106.44 23.9578C105.386 25.0117 104.613 26.3466 104.051 27.7517C103.489 29.2271 103.208 30.7728 103.208 32.459C103.208 34.2154 103.489 35.8314 104.051 37.2365C104.613 38.7119 105.386 39.9766 106.37 41.0304C107.353 42.0843 108.618 42.9274 110.093 43.4894C111.499 44.0515 113.114 44.3325 114.941 44.3325C117.47 44.3325 119.719 43.7705 121.545 42.5761C123.021 41.6627 124.145 40.1873 124.988 38.2904L125.41 37.377H118.384L118.173 37.5175C118.032 37.5878 117.962 37.7283 117.751 37.7986C116.979 38.2904 116.136 38.5714 115.082 38.5714C113.606 38.5714 112.482 38.2201 111.709 37.4473C111.077 36.815 110.655 35.7611 110.515 34.4262H125.972L126.042 33.7939C126.182 32.0374 126.042 30.4215 125.62 28.8056C124.988 27.3302 124.356 25.925 123.442 24.6604Z" fill="black"/>
<path d="M166.3 33.7938V34.8477C166.3 35.1287 166.3 35.5503 166.229 36.1123C166.159 36.6041 166.019 37.0257 165.738 37.5175C165.457 37.939 165.105 38.3606 164.543 38.6416C163.981 38.9929 163.208 39.1334 162.154 39.1334C161.733 39.1334 161.311 39.0632 160.89 38.9929C160.539 38.9226 160.187 38.7821 159.976 38.6416C159.766 38.5011 159.555 38.2903 159.414 38.0093C159.274 37.7283 159.204 37.377 159.204 36.9554C159.204 36.5339 159.274 36.1826 159.414 35.9016C159.555 35.6205 159.766 35.4098 159.976 35.199C160.257 34.9882 160.539 34.8477 160.89 34.7072C161.311 34.5667 161.733 34.4964 162.084 34.4262C162.576 34.3559 162.998 34.2856 163.489 34.2154C163.981 34.1451 164.473 34.0749 164.894 34.0046C165.386 33.9344 165.808 33.7938 166.159 33.6533C166.3 33.8641 166.3 33.8641 166.3 33.7938ZM173.536 38.4308V27.2599C173.536 25.7845 173.185 24.6603 172.553 23.747C171.92 22.9039 171.077 22.2013 170.094 21.7095C169.11 21.2177 168.056 20.9367 166.862 20.7259C164.473 20.3746 162.084 20.3746 159.766 20.8664C158.501 21.1475 157.377 21.569 156.393 22.1311C155.339 22.7634 154.496 23.5362 153.864 24.5198C153.161 25.5034 152.81 26.7681 152.74 28.3137L152.67 29.0163H159.906L159.976 28.4543C160.047 27.4707 160.398 26.8383 160.89 26.4168C161.452 25.9952 162.225 25.7845 163.208 25.7845C163.7 25.7845 164.192 25.7845 164.613 25.8547C164.965 25.925 165.316 25.9952 165.597 26.206C165.878 26.3465 166.019 26.5573 166.159 26.8383C166.3 27.1194 166.37 27.5409 166.37 28.103C166.37 28.5948 166.229 28.8758 166.089 28.9461C165.808 29.2271 165.316 29.3676 164.754 29.5784C164.122 29.7189 163.419 29.8594 162.576 29.9297C161.663 29.9999 160.82 30.1404 159.906 30.281C158.993 30.4215 158.08 30.6322 157.166 30.843C156.253 31.124 155.339 31.4753 154.637 31.9671C153.864 32.5292 153.232 33.2318 152.74 34.0749C152.248 34.9882 152.037 36.1123 152.037 37.377C152.037 38.5714 152.248 39.6252 152.67 40.5386C153.091 41.4519 153.653 42.1545 154.426 42.7868C155.129 43.3489 156.042 43.7704 156.955 44.0514C157.869 44.3325 158.923 44.473 159.976 44.473C161.382 44.473 162.717 44.2622 164.051 43.8407C165.035 43.5596 165.948 43.0678 166.721 42.5058C166.791 42.8571 166.862 43.1381 167.002 43.4894L167.143 43.9109H173.606V40.3981C173.606 39.6252 173.536 39.0632 173.536 38.4308Z" fill="black"/>
<path d="M25.9955 24.3794V32.3888L30.0002 36.4637L34.0751 32.459V24.3794L30.0002 20.3747L25.9955 24.3794Z" fill="#FF0000"/>
<path d="M47.5644 50.1639L44.4028 52.4824L41.2412 50.1639V42.2248L37.2365 38.2201L33.1616 42.2951V50.2342L30 52.5527L26.8384 50.2342V42.2248L22.7635 38.1499L18.6885 42.2248V50.1639L15.5269 52.4824L12.3653 50.1639V39.6253L19.6721 32.459V21.7799L26.9087 14.5433V5.40984L30.0703 3.09133L33.2318 5.40984V14.5433L40.3981 21.7799V32.3888L47.6347 39.6253V50.1639H47.5644ZM30 0C13.4192 0 0 13.4192 0 30C0 46.5808 13.4192 60 30 60C46.5808 60 60 46.5808 60 30C60.0703 13.4192 46.5808 0 30 0Z" fill="#EC0000"/>
</svg>
